<mxfile host="app.diagrams.net" modified="2021-11-03T09:41:19.791Z" agent="5.0 (Macintosh; Intel Mac OS X 10_15_7) AppleWebKit/537.36 (KHTML, like Gecko) Chrome/95.0.4638.54 Safari/537.36" etag="nD8a9Ovv94Sj1dphjmXK" version="14.7.7" type="github">
  <diagram name="Page-1" id="74e2e168-ea6b-b213-b513-2b3c1d86103e">
    <mxGraphModel dx="1186" dy="621" grid="1" gridSize="10" guides="1" tooltips="1" connect="1" arrows="1" fold="1" page="1" pageScale="1" pageWidth="1100" pageHeight="850" background="none" math="0" shadow="0">
      <root>
        <mxCell id="0" />
        <mxCell id="1" parent="0" />
        <mxCell id="2gMiZiSh976H5tjqEBDV-12" value="User" style="swimlane;fontStyle=0;childLayout=stackLayout;horizontal=1;startSize=26;fillColor=none;horizontalStack=0;resizeParent=1;resizeParentMax=0;resizeLast=0;collapsible=1;marginBottom=0;" vertex="1" parent="1">
          <mxGeometry x="530" y="261" width="140" height="136" as="geometry">
            <mxRectangle x="530" y="230" width="60" height="26" as="alternateBounds" />
          </mxGeometry>
        </mxCell>
        <mxCell id="2gMiZiSh976H5tjqEBDV-13" value="name" style="text;strokeColor=none;fillColor=none;align=left;verticalAlign=top;spacingLeft=4;spacingRight=4;overflow=hidden;rotatable=0;points=[[0,0.5],[1,0.5]];portConstraint=eastwest;" vertex="1" parent="2gMiZiSh976H5tjqEBDV-12">
          <mxGeometry y="26" width="140" height="26" as="geometry" />
        </mxCell>
        <mxCell id="2gMiZiSh976H5tjqEBDV-14" value="phone_number" style="text;strokeColor=none;fillColor=none;align=left;verticalAlign=top;spacingLeft=4;spacingRight=4;overflow=hidden;rotatable=0;points=[[0,0.5],[1,0.5]];portConstraint=eastwest;" vertex="1" parent="2gMiZiSh976H5tjqEBDV-12">
          <mxGeometry y="52" width="140" height="28" as="geometry" />
        </mxCell>
        <mxCell id="2gMiZiSh976H5tjqEBDV-15" value="employee_number" style="text;strokeColor=none;fillColor=none;align=left;verticalAlign=top;spacingLeft=4;spacingRight=4;overflow=hidden;rotatable=0;points=[[0,0.5],[1,0.5]];portConstraint=eastwest;" vertex="1" parent="2gMiZiSh976H5tjqEBDV-12">
          <mxGeometry y="80" width="140" height="28" as="geometry" />
        </mxCell>
        <mxCell id="2gMiZiSh976H5tjqEBDV-101" value="relations" style="text;strokeColor=none;fillColor=none;align=left;verticalAlign=top;spacingLeft=4;spacingRight=4;overflow=hidden;rotatable=0;points=[[0,0.5],[1,0.5]];portConstraint=eastwest;" vertex="1" parent="2gMiZiSh976H5tjqEBDV-12">
          <mxGeometry y="108" width="140" height="28" as="geometry" />
        </mxCell>
        <mxCell id="2gMiZiSh976H5tjqEBDV-4" style="edgeStyle=orthogonalEdgeStyle;rounded=0;orthogonalLoop=1;jettySize=auto;html=1;exitX=1;exitY=0.5;exitDx=0;exitDy=0;entryX=0;entryY=0.5;entryDx=0;entryDy=0;" edge="1" parent="1" source="2gMiZiSh976H5tjqEBDV-1" target="2gMiZiSh976H5tjqEBDV-3">
          <mxGeometry relative="1" as="geometry" />
        </mxCell>
        <mxCell id="2gMiZiSh976H5tjqEBDV-1" value="事业群" style="rounded=0;whiteSpace=wrap;html=1;" vertex="1" parent="1">
          <mxGeometry x="90" y="200" width="120" height="40" as="geometry" />
        </mxCell>
        <mxCell id="2gMiZiSh976H5tjqEBDV-20" style="edgeStyle=orthogonalEdgeStyle;rounded=0;orthogonalLoop=1;jettySize=auto;html=1;exitX=0.5;exitY=1;exitDx=0;exitDy=0;entryX=0;entryY=0.5;entryDx=0;entryDy=0;entryPerimeter=0;" edge="1" parent="1" source="2gMiZiSh976H5tjqEBDV-3" target="2gMiZiSh976H5tjqEBDV-7">
          <mxGeometry relative="1" as="geometry" />
        </mxCell>
        <mxCell id="2gMiZiSh976H5tjqEBDV-31" style="edgeStyle=orthogonalEdgeStyle;rounded=0;orthogonalLoop=1;jettySize=auto;html=1;exitX=0.5;exitY=0;exitDx=0;exitDy=0;entryX=0;entryY=0.5;entryDx=0;entryDy=0;entryPerimeter=0;" edge="1" parent="1" source="2gMiZiSh976H5tjqEBDV-3" target="2gMiZiSh976H5tjqEBDV-6">
          <mxGeometry relative="1" as="geometry" />
        </mxCell>
        <mxCell id="2gMiZiSh976H5tjqEBDV-3" value="一级部门" style="rounded=0;whiteSpace=wrap;html=1;" vertex="1" parent="1">
          <mxGeometry x="280" y="200" width="120" height="40" as="geometry" />
        </mxCell>
        <mxCell id="2gMiZiSh976H5tjqEBDV-33" style="edgeStyle=orthogonalEdgeStyle;rounded=0;orthogonalLoop=1;jettySize=auto;html=1;exitX=1;exitY=0.5;exitDx=0;exitDy=0;exitPerimeter=0;entryX=0;entryY=0.5;entryDx=0;entryDy=0;" edge="1" parent="1" source="2gMiZiSh976H5tjqEBDV-6" target="2gMiZiSh976H5tjqEBDV-116">
          <mxGeometry relative="1" as="geometry">
            <mxPoint x="560" y="130" as="targetPoint" />
          </mxGeometry>
        </mxCell>
        <mxCell id="2gMiZiSh976H5tjqEBDV-6" value="合同表" style="strokeWidth=2;html=1;shape=mxgraph.flowchart.database;whiteSpace=wrap;" vertex="1" parent="1">
          <mxGeometry x="410" y="100" width="60" height="60" as="geometry" />
        </mxCell>
        <mxCell id="2gMiZiSh976H5tjqEBDV-21" style="edgeStyle=orthogonalEdgeStyle;rounded=0;orthogonalLoop=1;jettySize=auto;html=1;exitX=1;exitY=0.5;exitDx=0;exitDy=0;exitPerimeter=0;entryX=0;entryY=0.5;entryDx=0;entryDy=0;" edge="1" parent="1" source="2gMiZiSh976H5tjqEBDV-7" target="2gMiZiSh976H5tjqEBDV-13">
          <mxGeometry relative="1" as="geometry" />
        </mxCell>
        <mxCell id="2gMiZiSh976H5tjqEBDV-7" value="员工表" style="strokeWidth=2;html=1;shape=mxgraph.flowchart.database;whiteSpace=wrap;" vertex="1" parent="1">
          <mxGeometry x="410" y="270" width="60" height="60" as="geometry" />
        </mxCell>
        <mxCell id="2gMiZiSh976H5tjqEBDV-30" style="edgeStyle=orthogonalEdgeStyle;rounded=0;orthogonalLoop=1;jettySize=auto;html=1;exitX=1;exitY=0.5;exitDx=0;exitDy=0;exitPerimeter=0;entryX=0;entryY=0.5;entryDx=0;entryDy=0;" edge="1" parent="1" source="2gMiZiSh976H5tjqEBDV-8" target="2gMiZiSh976H5tjqEBDV-27">
          <mxGeometry relative="1" as="geometry" />
        </mxCell>
        <mxCell id="2gMiZiSh976H5tjqEBDV-8" value="员工关联表" style="strokeWidth=2;html=1;shape=mxgraph.flowchart.database;whiteSpace=wrap;" vertex="1" parent="1">
          <mxGeometry x="765" y="459" width="60" height="60" as="geometry" />
        </mxCell>
        <mxCell id="2gMiZiSh976H5tjqEBDV-26" value="Relation" style="swimlane;fontStyle=0;childLayout=stackLayout;horizontal=1;startSize=26;fillColor=none;horizontalStack=0;resizeParent=1;resizeParentMax=0;resizeLast=0;collapsible=1;marginBottom=0;" vertex="1" parent="1">
          <mxGeometry x="875" y="450" width="140" height="104" as="geometry" />
        </mxCell>
        <mxCell id="2gMiZiSh976H5tjqEBDV-27" value="name" style="text;strokeColor=none;fillColor=none;align=left;verticalAlign=top;spacingLeft=4;spacingRight=4;overflow=hidden;rotatable=0;points=[[0,0.5],[1,0.5]];portConstraint=eastwest;" vertex="1" parent="2gMiZiSh976H5tjqEBDV-26">
          <mxGeometry y="26" width="140" height="26" as="geometry" />
        </mxCell>
        <mxCell id="2gMiZiSh976H5tjqEBDV-28" value="phone_number" style="text;strokeColor=none;fillColor=none;align=left;verticalAlign=top;spacingLeft=4;spacingRight=4;overflow=hidden;rotatable=0;points=[[0,0.5],[1,0.5]];portConstraint=eastwest;" vertex="1" parent="2gMiZiSh976H5tjqEBDV-26">
          <mxGeometry y="52" width="140" height="26" as="geometry" />
        </mxCell>
        <mxCell id="2gMiZiSh976H5tjqEBDV-29" value="employee_number" style="text;strokeColor=none;fillColor=none;align=left;verticalAlign=top;spacingLeft=4;spacingRight=4;overflow=hidden;rotatable=0;points=[[0,0.5],[1,0.5]];portConstraint=eastwest;" vertex="1" parent="2gMiZiSh976H5tjqEBDV-26">
          <mxGeometry y="78" width="140" height="26" as="geometry" />
        </mxCell>
        <mxCell id="2gMiZiSh976H5tjqEBDV-140" style="edgeStyle=orthogonalEdgeStyle;rounded=0;orthogonalLoop=1;jettySize=auto;html=1;exitX=1;exitY=0.5;exitDx=0;exitDy=0;exitPerimeter=0;entryX=0;entryY=0.5;entryDx=0;entryDy=0;" edge="1" parent="1" source="2gMiZiSh976H5tjqEBDV-78" target="2gMiZiSh976H5tjqEBDV-133">
          <mxGeometry relative="1" as="geometry" />
        </mxCell>
        <mxCell id="2gMiZiSh976H5tjqEBDV-78" value="成员表" style="strokeWidth=2;html=1;shape=mxgraph.flowchart.database;whiteSpace=wrap;" vertex="1" parent="1">
          <mxGeometry x="940" y="46" width="60" height="60" as="geometry" />
        </mxCell>
        <mxCell id="2gMiZiSh976H5tjqEBDV-150" style="edgeStyle=orthogonalEdgeStyle;rounded=0;orthogonalLoop=1;jettySize=auto;html=1;exitX=1;exitY=0.5;exitDx=0;exitDy=0;exitPerimeter=0;entryX=0.5;entryY=0;entryDx=0;entryDy=0;" edge="1" parent="1" source="2gMiZiSh976H5tjqEBDV-79" target="2gMiZiSh976H5tjqEBDV-136">
          <mxGeometry relative="1" as="geometry" />
        </mxCell>
        <mxCell id="2gMiZiSh976H5tjqEBDV-79" value="变更表" style="strokeWidth=2;html=1;shape=mxgraph.flowchart.database;whiteSpace=wrap;" vertex="1" parent="1">
          <mxGeometry x="940" y="160" width="60" height="60" as="geometry" />
        </mxCell>
        <mxCell id="2gMiZiSh976H5tjqEBDV-130" value="" style="edgeStyle=orthogonalEdgeStyle;rounded=0;orthogonalLoop=1;jettySize=auto;html=1;exitX=1;exitY=0.5;exitDx=0;exitDy=0;" edge="1" parent="1" source="2gMiZiSh976H5tjqEBDV-15" target="2gMiZiSh976H5tjqEBDV-8">
          <mxGeometry relative="1" as="geometry">
            <mxPoint x="580" y="390" as="sourcePoint" />
            <Array as="points">
              <mxPoint x="720" y="355" />
              <mxPoint x="720" y="489" />
            </Array>
          </mxGeometry>
        </mxCell>
        <mxCell id="2gMiZiSh976H5tjqEBDV-83" value="employee_number 关联查询" style="text;html=1;align=center;verticalAlign=middle;resizable=0;points=[];autosize=1;strokeColor=none;" vertex="1" parent="1">
          <mxGeometry x="640" y="415" width="170" height="20" as="geometry" />
        </mxCell>
        <mxCell id="2gMiZiSh976H5tjqEBDV-114" value="Supplier" style="swimlane;fontStyle=0;childLayout=stackLayout;horizontal=1;startSize=26;fillColor=none;horizontalStack=0;resizeParent=1;resizeParentMax=0;resizeLast=0;collapsible=1;marginBottom=0;" vertex="1" parent="1">
          <mxGeometry x="630" y="64" width="140" height="164" as="geometry">
            <mxRectangle x="530" y="230" width="60" height="26" as="alternateBounds" />
          </mxGeometry>
        </mxCell>
        <mxCell id="2gMiZiSh976H5tjqEBDV-115" value="supplier_name" style="text;strokeColor=none;fillColor=none;align=left;verticalAlign=top;spacingLeft=4;spacingRight=4;overflow=hidden;rotatable=0;points=[[0,0.5],[1,0.5]];portConstraint=eastwest;" vertex="1" parent="2gMiZiSh976H5tjqEBDV-114">
          <mxGeometry y="26" width="140" height="26" as="geometry" />
        </mxCell>
        <mxCell id="2gMiZiSh976H5tjqEBDV-116" value="office_number" style="text;strokeColor=none;fillColor=none;align=left;verticalAlign=top;spacingLeft=4;spacingRight=4;overflow=hidden;rotatable=0;points=[[0,0.5],[1,0.5]];portConstraint=eastwest;" vertex="1" parent="2gMiZiSh976H5tjqEBDV-114">
          <mxGeometry y="52" width="140" height="28" as="geometry" />
        </mxCell>
        <mxCell id="2gMiZiSh976H5tjqEBDV-117" value="id" style="text;strokeColor=none;fillColor=none;align=left;verticalAlign=top;spacingLeft=4;spacingRight=4;overflow=hidden;rotatable=0;points=[[0,0.5],[1,0.5]];portConstraint=eastwest;" vertex="1" parent="2gMiZiSh976H5tjqEBDV-114">
          <mxGeometry y="80" width="140" height="28" as="geometry" />
        </mxCell>
        <mxCell id="2gMiZiSh976H5tjqEBDV-118" value="members" style="text;strokeColor=none;fillColor=none;align=left;verticalAlign=top;spacingLeft=4;spacingRight=4;overflow=hidden;rotatable=0;points=[[0,0.5],[1,0.5]];portConstraint=eastwest;" vertex="1" parent="2gMiZiSh976H5tjqEBDV-114">
          <mxGeometry y="108" width="140" height="28" as="geometry" />
        </mxCell>
        <mxCell id="2gMiZiSh976H5tjqEBDV-122" value="changes" style="text;strokeColor=none;fillColor=none;align=left;verticalAlign=top;spacingLeft=4;spacingRight=4;overflow=hidden;rotatable=0;points=[[0,0.5],[1,0.5]];portConstraint=eastwest;" vertex="1" parent="2gMiZiSh976H5tjqEBDV-114">
          <mxGeometry y="136" width="140" height="28" as="geometry" />
        </mxCell>
        <mxCell id="2gMiZiSh976H5tjqEBDV-127" value="" style="edgeStyle=orthogonalEdgeStyle;rounded=0;orthogonalLoop=1;jettySize=auto;html=1;" edge="1" parent="1" source="2gMiZiSh976H5tjqEBDV-116" target="2gMiZiSh976H5tjqEBDV-78">
          <mxGeometry relative="1" as="geometry" />
        </mxCell>
        <mxCell id="2gMiZiSh976H5tjqEBDV-128" style="edgeStyle=orthogonalEdgeStyle;rounded=0;orthogonalLoop=1;jettySize=auto;html=1;exitX=1;exitY=0.5;exitDx=0;exitDy=0;entryX=0.5;entryY=0;entryDx=0;entryDy=0;entryPerimeter=0;" edge="1" parent="1" source="2gMiZiSh976H5tjqEBDV-116" target="2gMiZiSh976H5tjqEBDV-79">
          <mxGeometry relative="1" as="geometry" />
        </mxCell>
        <mxCell id="2gMiZiSh976H5tjqEBDV-131" value="id 关联查询" style="text;html=1;align=center;verticalAlign=middle;resizable=0;points=[];autosize=1;strokeColor=none;" vertex="1" parent="1">
          <mxGeometry x="820" y="120" width="80" height="20" as="geometry" />
        </mxCell>
        <mxCell id="2gMiZiSh976H5tjqEBDV-132" value="Member" style="swimlane;fontStyle=0;childLayout=stackLayout;horizontal=1;startSize=26;fillColor=none;horizontalStack=0;resizeParent=1;resizeParentMax=0;resizeLast=0;collapsible=1;marginBottom=0;" vertex="1" parent="1">
          <mxGeometry x="1030" y="37" width="140" height="78" as="geometry" />
        </mxCell>
        <mxCell id="2gMiZiSh976H5tjqEBDV-133" value="staff_name" style="text;strokeColor=none;fillColor=none;align=left;verticalAlign=top;spacingLeft=4;spacingRight=4;overflow=hidden;rotatable=0;points=[[0,0.5],[1,0.5]];portConstraint=eastwest;" vertex="1" parent="2gMiZiSh976H5tjqEBDV-132">
          <mxGeometry y="26" width="140" height="26" as="geometry" />
        </mxCell>
        <mxCell id="2gMiZiSh976H5tjqEBDV-134" value="supplier_id" style="text;strokeColor=none;fillColor=none;align=left;verticalAlign=top;spacingLeft=4;spacingRight=4;overflow=hidden;rotatable=0;points=[[0,0.5],[1,0.5]];portConstraint=eastwest;" vertex="1" parent="2gMiZiSh976H5tjqEBDV-132">
          <mxGeometry y="52" width="140" height="26" as="geometry" />
        </mxCell>
        <mxCell id="2gMiZiSh976H5tjqEBDV-136" value="Change" style="swimlane;fontStyle=0;childLayout=stackLayout;horizontal=1;startSize=26;fillColor=none;horizontalStack=0;resizeParent=1;resizeParentMax=0;resizeLast=0;collapsible=1;marginBottom=0;" vertex="1" parent="1">
          <mxGeometry x="1020" y="252" width="140" height="78" as="geometry" />
        </mxCell>
        <mxCell id="2gMiZiSh976H5tjqEBDV-137" value="before_change" style="text;strokeColor=none;fillColor=none;align=left;verticalAlign=top;spacingLeft=4;spacingRight=4;overflow=hidden;rotatable=0;points=[[0,0.5],[1,0.5]];portConstraint=eastwest;" vertex="1" parent="2gMiZiSh976H5tjqEBDV-136">
          <mxGeometry y="26" width="140" height="26" as="geometry" />
        </mxCell>
        <mxCell id="2gMiZiSh976H5tjqEBDV-138" value="supplier_id" style="text;strokeColor=none;fillColor=none;align=left;verticalAlign=top;spacingLeft=4;spacingRight=4;overflow=hidden;rotatable=0;points=[[0,0.5],[1,0.5]];portConstraint=eastwest;" vertex="1" parent="2gMiZiSh976H5tjqEBDV-136">
          <mxGeometry y="52" width="140" height="26" as="geometry" />
        </mxCell>
        <mxCell id="2gMiZiSh976H5tjqEBDV-143" style="edgeStyle=orthogonalEdgeStyle;rounded=0;orthogonalLoop=1;jettySize=auto;html=1;exitX=1;exitY=0.5;exitDx=0;exitDy=0;" edge="1" parent="1" source="2gMiZiSh976H5tjqEBDV-133" target="2gMiZiSh976H5tjqEBDV-118">
          <mxGeometry relative="1" as="geometry" />
        </mxCell>
        <mxCell id="2gMiZiSh976H5tjqEBDV-149" style="edgeStyle=orthogonalEdgeStyle;rounded=0;orthogonalLoop=1;jettySize=auto;html=1;exitX=0;exitY=0.5;exitDx=0;exitDy=0;entryX=1;entryY=0.5;entryDx=0;entryDy=0;" edge="1" parent="1" source="2gMiZiSh976H5tjqEBDV-137" target="2gMiZiSh976H5tjqEBDV-122">
          <mxGeometry relative="1" as="geometry" />
        </mxCell>
        <mxCell id="2gMiZiSh976H5tjqEBDV-172" value="" style="edgeStyle=orthogonalEdgeStyle;rounded=0;orthogonalLoop=1;jettySize=auto;html=1;" edge="1" parent="1" source="2gMiZiSh976H5tjqEBDV-29">
          <mxGeometry relative="1" as="geometry">
            <mxPoint x="600" y="400" as="targetPoint" />
            <Array as="points">
              <mxPoint x="600" y="541" />
            </Array>
          </mxGeometry>
        </mxCell>
        <mxCell id="2gMiZiSh976H5tjqEBDV-177" style="edgeStyle=orthogonalEdgeStyle;rounded=0;orthogonalLoop=1;jettySize=auto;html=1;exitX=1;exitY=0.5;exitDx=0;exitDy=0;entryX=0;entryY=0.5;entryDx=0;entryDy=0;entryPerimeter=0;" edge="1" parent="1" source="2gMiZiSh976H5tjqEBDV-174" target="2gMiZiSh976H5tjqEBDV-176">
          <mxGeometry relative="1" as="geometry" />
        </mxCell>
        <mxCell id="2gMiZiSh976H5tjqEBDV-174" value="员工" style="rounded=0;whiteSpace=wrap;html=1;" vertex="1" parent="1">
          <mxGeometry x="90" y="610" width="120" height="40" as="geometry" />
        </mxCell>
        <mxCell id="2gMiZiSh976H5tjqEBDV-178" style="edgeStyle=orthogonalEdgeStyle;rounded=0;orthogonalLoop=1;jettySize=auto;html=1;exitX=1;exitY=0.5;exitDx=0;exitDy=0;entryX=0;entryY=0.5;entryDx=0;entryDy=0;entryPerimeter=0;" edge="1" parent="1" source="2gMiZiSh976H5tjqEBDV-175" target="2gMiZiSh976H5tjqEBDV-176">
          <mxGeometry relative="1" as="geometry">
            <mxPoint x="310" y="680" as="targetPoint" />
            <Array as="points">
              <mxPoint x="260" y="750" />
              <mxPoint x="260" y="690" />
            </Array>
          </mxGeometry>
        </mxCell>
        <mxCell id="2gMiZiSh976H5tjqEBDV-175" value="供应商" style="rounded=0;whiteSpace=wrap;html=1;" vertex="1" parent="1">
          <mxGeometry x="90" y="730" width="120" height="40" as="geometry" />
        </mxCell>
        <mxCell id="2gMiZiSh976H5tjqEBDV-197" style="edgeStyle=orthogonalEdgeStyle;rounded=0;orthogonalLoop=1;jettySize=auto;html=1;exitX=1;exitY=0.5;exitDx=0;exitDy=0;exitPerimeter=0;entryX=0;entryY=0.5;entryDx=0;entryDy=0;" edge="1" parent="1" source="2gMiZiSh976H5tjqEBDV-176" target="2gMiZiSh976H5tjqEBDV-188">
          <mxGeometry relative="1" as="geometry">
            <Array as="points">
              <mxPoint x="410" y="615" />
            </Array>
          </mxGeometry>
        </mxCell>
        <mxCell id="2gMiZiSh976H5tjqEBDV-176" value="碰撞" style="strokeWidth=2;html=1;shape=mxgraph.flowchart.decision;whiteSpace=wrap;" vertex="1" parent="1">
          <mxGeometry x="310" y="660" width="100" height="60" as="geometry" />
        </mxCell>
        <mxCell id="2gMiZiSh976H5tjqEBDV-201" style="edgeStyle=orthogonalEdgeStyle;rounded=0;orthogonalLoop=1;jettySize=auto;html=1;exitX=1;exitY=0.5;exitDx=0;exitDy=0;entryX=0;entryY=0.5;entryDx=0;entryDy=0;" edge="1" parent="1" source="2gMiZiSh976H5tjqEBDV-188" target="2gMiZiSh976H5tjqEBDV-192">
          <mxGeometry relative="1" as="geometry" />
        </mxCell>
        <mxCell id="2gMiZiSh976H5tjqEBDV-210" style="edgeStyle=orthogonalEdgeStyle;rounded=0;orthogonalLoop=1;jettySize=auto;html=1;exitX=0.5;exitY=1;exitDx=0;exitDy=0;entryX=0.5;entryY=0;entryDx=0;entryDy=0;" edge="1" parent="1" source="2gMiZiSh976H5tjqEBDV-188" target="2gMiZiSh976H5tjqEBDV-189">
          <mxGeometry relative="1" as="geometry" />
        </mxCell>
        <mxCell id="2gMiZiSh976H5tjqEBDV-188" value="&lt;span&gt;白名单&lt;/span&gt;" style="shape=parallelogram;perimeter=parallelogramPerimeter;whiteSpace=wrap;html=1;fixedSize=1;" vertex="1" parent="1">
          <mxGeometry x="470" y="600" width="260" height="30" as="geometry" />
        </mxCell>
        <mxCell id="2gMiZiSh976H5tjqEBDV-202" style="edgeStyle=orthogonalEdgeStyle;rounded=0;orthogonalLoop=1;jettySize=auto;html=1;exitX=1;exitY=0.5;exitDx=0;exitDy=0;entryX=0;entryY=0.5;entryDx=0;entryDy=0;" edge="1" parent="1" source="2gMiZiSh976H5tjqEBDV-189" target="2gMiZiSh976H5tjqEBDV-193">
          <mxGeometry relative="1" as="geometry" />
        </mxCell>
        <mxCell id="2gMiZiSh976H5tjqEBDV-211" style="edgeStyle=orthogonalEdgeStyle;rounded=0;orthogonalLoop=1;jettySize=auto;html=1;exitX=0.5;exitY=1;exitDx=0;exitDy=0;entryX=0.5;entryY=0;entryDx=0;entryDy=0;" edge="1" parent="1" source="2gMiZiSh976H5tjqEBDV-189" target="2gMiZiSh976H5tjqEBDV-190">
          <mxGeometry relative="1" as="geometry" />
        </mxCell>
        <mxCell id="2gMiZiSh976H5tjqEBDV-189" value="&lt;span&gt;phone_number = office_number&lt;/span&gt;&lt;br&gt;&lt;span&gt;relation.phone_number = office_number&lt;/span&gt;" style="shape=parallelogram;perimeter=parallelogramPerimeter;whiteSpace=wrap;html=1;fixedSize=1;" vertex="1" parent="1">
          <mxGeometry x="470" y="650" width="260" height="30" as="geometry" />
        </mxCell>
        <mxCell id="2gMiZiSh976H5tjqEBDV-203" style="edgeStyle=orthogonalEdgeStyle;rounded=0;orthogonalLoop=1;jettySize=auto;html=1;exitX=1;exitY=0.5;exitDx=0;exitDy=0;entryX=0;entryY=0.5;entryDx=0;entryDy=0;" edge="1" parent="1" source="2gMiZiSh976H5tjqEBDV-190" target="2gMiZiSh976H5tjqEBDV-196">
          <mxGeometry relative="1" as="geometry" />
        </mxCell>
        <mxCell id="2gMiZiSh976H5tjqEBDV-212" style="edgeStyle=orthogonalEdgeStyle;rounded=0;orthogonalLoop=1;jettySize=auto;html=1;exitX=0.5;exitY=1;exitDx=0;exitDy=0;entryX=0.5;entryY=0;entryDx=0;entryDy=0;" edge="1" parent="1" source="2gMiZiSh976H5tjqEBDV-190" target="2gMiZiSh976H5tjqEBDV-191">
          <mxGeometry relative="1" as="geometry" />
        </mxCell>
        <mxCell id="2gMiZiSh976H5tjqEBDV-190" value="&lt;span&gt;name = staff_name&lt;/span&gt;&lt;br&gt;&lt;span&gt;relation.name = staff_name&lt;/span&gt;" style="shape=parallelogram;perimeter=parallelogramPerimeter;whiteSpace=wrap;html=1;fixedSize=1;" vertex="1" parent="1">
          <mxGeometry x="470" y="700" width="260" height="30" as="geometry" />
        </mxCell>
        <mxCell id="2gMiZiSh976H5tjqEBDV-204" style="edgeStyle=orthogonalEdgeStyle;rounded=0;orthogonalLoop=1;jettySize=auto;html=1;exitX=1;exitY=0.5;exitDx=0;exitDy=0;entryX=0;entryY=0.5;entryDx=0;entryDy=0;" edge="1" parent="1" source="2gMiZiSh976H5tjqEBDV-191" target="2gMiZiSh976H5tjqEBDV-196">
          <mxGeometry relative="1" as="geometry">
            <mxPoint x="760" y="730" as="targetPoint" />
            <Array as="points">
              <mxPoint x="750" y="765" />
              <mxPoint x="750" y="745" />
            </Array>
          </mxGeometry>
        </mxCell>
        <mxCell id="2gMiZiSh976H5tjqEBDV-191" value="&lt;span&gt;before_change 包含 name&lt;/span&gt;&lt;br&gt;&lt;span&gt;before_change 包含 relation.name&lt;/span&gt;" style="shape=parallelogram;perimeter=parallelogramPerimeter;whiteSpace=wrap;html=1;fixedSize=1;" vertex="1" parent="1">
          <mxGeometry x="470" y="750" width="260" height="30" as="geometry" />
        </mxCell>
        <mxCell id="2gMiZiSh976H5tjqEBDV-192" value="低风险" style="rounded=0;whiteSpace=wrap;html=1;" vertex="1" parent="1">
          <mxGeometry x="970" y="600" width="120" height="30" as="geometry" />
        </mxCell>
        <mxCell id="2gMiZiSh976H5tjqEBDV-193" value="高风险" style="rounded=0;whiteSpace=wrap;html=1;" vertex="1" parent="1">
          <mxGeometry x="970" y="650" width="120" height="30" as="geometry" />
        </mxCell>
        <mxCell id="2gMiZiSh976H5tjqEBDV-194" value="中风险" style="rounded=0;whiteSpace=wrap;html=1;" vertex="1" parent="1">
          <mxGeometry x="970" y="750" width="120" height="30" as="geometry" />
        </mxCell>
        <mxCell id="2gMiZiSh976H5tjqEBDV-206" style="edgeStyle=orthogonalEdgeStyle;rounded=0;orthogonalLoop=1;jettySize=auto;html=1;exitX=1;exitY=0.5;exitDx=0;exitDy=0;entryX=0;entryY=0.5;entryDx=0;entryDy=0;" edge="1" parent="1" source="2gMiZiSh976H5tjqEBDV-196" target="2gMiZiSh976H5tjqEBDV-193">
          <mxGeometry relative="1" as="geometry" />
        </mxCell>
        <mxCell id="2gMiZiSh976H5tjqEBDV-207" style="edgeStyle=orthogonalEdgeStyle;rounded=0;orthogonalLoop=1;jettySize=auto;html=1;exitX=1;exitY=0.5;exitDx=0;exitDy=0;entryX=0;entryY=0.5;entryDx=0;entryDy=0;" edge="1" parent="1" source="2gMiZiSh976H5tjqEBDV-196" target="2gMiZiSh976H5tjqEBDV-194">
          <mxGeometry relative="1" as="geometry" />
        </mxCell>
        <mxCell id="2gMiZiSh976H5tjqEBDV-209" value="否" style="edgeLabel;html=1;align=center;verticalAlign=middle;resizable=0;points=[];" vertex="1" connectable="0" parent="2gMiZiSh976H5tjqEBDV-207">
          <mxGeometry x="0.4286" y="-4" relative="1" as="geometry">
            <mxPoint x="-2" y="-1" as="offset" />
          </mxGeometry>
        </mxCell>
        <mxCell id="2gMiZiSh976H5tjqEBDV-196" value="name = salesman" style="shape=parallelogram;perimeter=parallelogramPerimeter;whiteSpace=wrap;html=1;fixedSize=1;" vertex="1" parent="1">
          <mxGeometry x="770" y="730" width="140" height="30" as="geometry" />
        </mxCell>
        <mxCell id="2gMiZiSh976H5tjqEBDV-208" value="是" style="text;html=1;align=center;verticalAlign=middle;resizable=0;points=[];autosize=1;strokeColor=none;" vertex="1" parent="1">
          <mxGeometry x="925" y="700" width="30" height="20" as="geometry" />
        </mxCell>
      </root>
    </mxGraphModel>
  </diagram>
</mxfile>
